<svg width="603" height="809" viewBox="0 0 603 809" fill="none" xmlns="http://www.w3.org/2000/svg">
<path d="M258.919 8.89539L553.1 170.702L552.255 479.529L594.642 504.032L596.333 793.003L7.26587 498.117V203.655L258.919 8.89539Z" fill="white"/>
<path d="M309.655 644.398L309.562 512.401V512.396L587.14 650.918V785.136L309.655 644.398ZM293.612 635.557L161.633 568.614V290.398L293.612 357.655V362.928V635.557ZM16.1283 494.819L15.9559 216.153L145.77 282.315L145.775 282.318V560.578H145.77L16.1283 494.819ZM260.799 17.2005L385.606 85.8953V85.8978L152.638 270.364L20.9655 203.358L260.799 17.2005ZM301.079 345.902L166.564 277.448L399.096 93.3209H399.099L538.851 170.248L301.079 345.902ZM543.807 469.809L406.129 399.646H406.126V285.839H406.129L543.807 184.11V469.809ZM390.268 391.566L314.969 353.198L390.268 297.56V391.566ZM587.14 507.234V635.659L309.562 497.138V497.133L309.47 365.745L587.14 507.234ZM559.665 477.888V172.4V166.009L543.807 157.277L259.121 0.574402L7.00906 196.244L0.0853271 201.616L0.0980157 208.076L0.270414 502.102L293.798 650.977V651.684L603 808.514V499.97L559.665 477.888Z" fill="#333333"/>
<path d="M258.919 8.89539L553.1 170.702L552.255 479.529L594.642 504.032L596.333 793.003L7.26587 498.117V203.655L258.919 8.89539Z" fill="#FFBC2D"/>
<path d="M309.655 644.398L309.562 512.401V512.396L587.14 650.918V785.136L309.655 644.398ZM293.612 635.557L161.633 568.614V290.398L293.612 357.655V362.928V635.557ZM16.1283 494.819L15.9559 216.153L145.77 282.315L145.775 282.318V560.578H145.77L16.1283 494.819ZM260.799 17.2005L385.606 85.8953V85.8978L152.638 270.364L20.9655 203.358L260.799 17.2005ZM301.079 345.902L166.564 277.448L399.096 93.3209H399.099L538.851 170.248L301.079 345.902ZM543.807 469.809L406.129 399.646H406.126V285.839H406.129L543.807 184.11V469.809ZM390.268 391.566L314.969 353.198L390.268 297.56V391.566ZM587.14 507.234V635.659L309.562 497.138V497.133L309.47 365.745L587.14 507.234ZM559.665 477.888V172.4V166.009L543.807 157.277L259.121 0.574402L7.00906 196.244L0.0853271 201.616L0.0980157 208.076L0.270414 502.102L293.798 650.977V651.684L603 808.514V499.97L559.665 477.888Z" fill="#333333"/>
<path d="M7.26587 203.655L302 354L550 480.5L594.642 504.032L596.333 793.003L7.26587 498.117V203.655Z" fill="#FF3D3D"/>
<path d="M309.655 644.398L309.562 512.401V512.396L587.14 650.918V785.136L309.655 644.398ZM293.612 635.557L161.633 568.614V290.398L293.612 357.655V362.928V635.557ZM16.1283 494.819L15.9559 216.153L145.77 282.315L145.775 282.318V560.578H145.77L16.1283 494.819ZM260.799 17.2005L385.606 85.8953V85.8978L152.638 270.364L20.9655 203.358L260.799 17.2005ZM301.079 345.902L166.564 277.448L399.096 93.3209H399.099L538.851 170.248L301.079 345.902ZM543.807 469.809L406.129 399.646H406.126V285.839H406.129L543.807 184.11V469.809ZM390.268 391.566L314.969 353.198L390.268 297.56V391.566ZM587.14 507.234V635.659L309.562 497.138V497.133L309.47 365.745L587.14 507.234ZM559.665 477.888V172.4V166.009L543.807 157.277L259.121 0.574402L7.00906 196.244L0.0853271 201.616L0.0980157 208.076L0.270414 502.102L293.798 650.977V651.684L603 808.514V499.97L559.665 477.888Z" fill="#333333"/>
<path d="M7.26587 203.655L302 354L303.691 642.971L7.26587 498.117V203.655Z" fill="#039BE5"/>
<path d="M309.655 644.398L309.562 512.401V512.396L587.14 650.918V785.136L309.655 644.398ZM293.612 635.557L161.633 568.614V290.398L293.612 357.655V362.928V635.557ZM16.1283 494.819L15.9559 216.153L145.77 282.315L145.775 282.318V560.578H145.77L16.1283 494.819ZM260.799 17.2005L385.606 85.8953V85.8978L152.638 270.364L20.9655 203.358L260.799 17.2005ZM301.079 345.902L166.564 277.448L399.096 93.3209H399.099L538.851 170.248L301.079 345.902ZM543.807 469.809L406.129 399.646H406.126V285.839H406.129L543.807 184.11V469.809ZM390.268 391.566L314.969 353.198L390.268 297.56V391.566ZM587.14 507.234V635.659L309.562 497.138V497.133L309.47 365.745L587.14 507.234ZM559.665 477.888V172.4V166.009L543.807 157.277L259.121 0.574402L7.00906 196.244L0.0853271 201.616L0.0980157 208.076L0.270414 502.102L293.798 650.977V651.684L603 808.514V499.97L559.665 477.888Z" fill="#333333"/>
</svg>
